<svg xmlns="http://www.w3.org/2000/svg" viewBox="0 0 512 512">
  <path fill="#0f5128" d="M0 0h512v511.999H0z" />
  <path
    fill="#0f5128"
    d="M109.115 161.323c-28.503 3.381-44.507 22.593-43.598 52.338.913 29.887 16.494 46.282 45.53 47.91 10.878.61 20.916-.815 35.305-5.012 2.298-.671 2.48-.801 2.781-1.987.611-2.408.6-2.476-.665-3.511-2.117-1.734-2.105-1.653-2.11-12.888-.008-14.58-.012-14.575 6.82-16.15 1.07-.246 1.155-.468 1.16-3.132.004-2.969.197-2.856-4.506-2.647-5.705.253-20.277.245-29.246-.016-9.206-.269-8.509-.488-8.504 2.663.005 2.792.05 2.883 1.543 3.106 12.875 1.926 13.338 2.722 12.614 21.665-.381 9.958-1.268 11.096-8.62 11.064-17.334-.076-28.99-18.872-28.99-46.748 0-30.495 12.998-45.12 35.167-39.567 10.354 2.595 14.264 7.875 16.127 21.78.376 2.797.397 2.825 2.306 2.829 3.689.007 3.517.328 3.856-7.21.292-6.48.77-11.721 1.572-17.193.657-4.481.658-4.454-.209-4.455-.39-.001-2.39-.29-4.446-.641-16.387-2.806-24.386-3.325-33.887-2.198m62.233 39.926c-2.097 1.092-7.852 2.76-11.138 3.228-1.392.199-1.411.218-1.636 1.62l-.166 1.041 1.497.759c2.565 1.301 2.52 1.16 2.762 8.79.223 6.998-.078 16.346-.553 17.235-.25.465-1.088.858-3.263 1.526-.734.226-.774.308-.774 1.631v1.392l10.495.02 10.494.017.24-1.134c.301-1.405.162-1.795-.706-1.974-5.773-1.197-5.443-.382-5.446-13.532l-.001-9.942.665-.624c1.47-1.38 4.493-.601 7.176 1.851 2.02 1.848 2.408 1.571 4.407-3.164 2.079-4.926 1.848-7.216-.843-8.34-2.85-1.191-5.146-.201-9.075 3.913l-2.664 2.79.13-3.654c.155-4.27.12-4.345-1.6-3.449m157.194 0c-2.082 1.085-7.948 2.798-11.148 3.256-1.407.202-1.361.158-1.595 1.571l-.177 1.07 1.475.734c2.857 1.424 3.077 2.678 2.853 16.197-.178 10.669-.017 10.201-3.905 11.376-.735.221-.774.302-.774 1.626v1.392l10.508.02 10.506.017.25-.902c.525-1.885.494-1.916-2.71-2.692-3.616-.877-3.518-.494-3.423-13.274l.073-9.912.902-.612c1.632-1.108 4.214-.336 6.811 2.037 1.87 1.71 2.111 1.614 3.678-1.444 3.421-6.678 2.574-10.443-2.346-10.435-2.48.004-4.336 1.287-8.221 5.685l-1.237 1.399.05-3.35c.075-4.846.153-4.656-1.57-3.759m-125.372.396c-12.389 3.038-17.947 16.548-11.933 29.004 6.52 13.508 28.566 10.89 32.64-3.879 4.289-15.547-6.479-28.613-20.707-25.125m91.227.107c-9.913 2.84-15.051 13.592-12.121 25.362 3.373 13.55 18.101 16.691 27.934 5.96 2.603-2.84 2.826-6.501.28-4.595-7.562 5.662-17.166 2.022-18.415-6.978-.219-1.582-.204-1.588 5.287-1.922 5.338-.326 12.759-1.115 14.045-1.494 1.18-.348 1.491-2.043.572-3.134-.36-.427-.735-1.273-.836-1.88-1.444-8.744-8.676-13.632-16.746-11.32m61.966 0c-6.48 1.673-10.003 7.08-8.865 13.607.782 4.478 3.335 7.236 10.23 11.049 5.576 3.084 6.942 7.047 3.075 8.92-4.103 1.986-9.053-1.719-11.005-8.233-.525-1.752-.747-1.873-2.36-1.29-1.012.366-.987.048-.481 5.876.54 6.242.377 5.822 2.546 6.467 10.943 3.26 20.039-.24 22.213-8.548 1.365-5.212-1.073-10.263-6.28-13.014-8.09-4.274-9.316-5.337-9.319-8.082-.002-5.064 7.049-5.273 9.234-.274.217.497.638 1.83.937 2.964l.544 2.061 1.207-.015c1.527-.02 1.4.215 1.586-2.948.086-1.488.29-3.837.453-5.22.162-1.383.229-2.58.148-2.661-.89-.89-11.087-1.374-13.863-.658m-130.542.96c-.43 1.72-.049 2.477 1.439 2.858 2.107.536 2.882 1.098 3.659 2.653 1.44 2.885 4.733 14.094 8.552 29.126l.296 1.16 5.98.144.794-2.392c1.646-4.958 5.805-16.437 6.176-17.052.313-.52 3.043 6.716 6.55 17.366l.637 1.933h2.917c3.402 0 2.98.383 4.272-3.864 1.624-5.343 4.685-14.701 7.171-21.929 1.748-5.078 2.504-6.063 5.35-6.959 1.792-.564 2.141-1.022 1.919-2.517l-.16-1.066-15.836.084-.222 1.181c-.312 1.666-.216 1.77 2.125 2.314 2.475.575 3.38 1.254 3.38 2.536 0 1.91-4.102 16.691-4.631 16.691-.326 0-5.116-13.24-6.597-18.232l-.707-2.383h-5.58l-.155.709c-.96 4.374-6.041 19.504-6.414 19.097-.327-.356-2.348-7.728-3.755-13.693-.91-3.857-.86-4.071 1.1-4.704 1.943-.63 2.139-.878 1.851-2.34l-.238-1.21-9.869-.025c-9.812-.024-9.869-.022-10.004.515m-18.631 2.426c6.654 1.849 8.617 28.165 2.265 30.38-5.322 1.854-8.997-5.458-8.981-17.884.01-9.772 2.156-13.763 6.716-12.496m91.485 1c1.443 1.616 2.963 7.092 2.43 8.766-.27.855-8.495 1.207-9.17.393-.749-.902.665-7.328 1.996-9.084 1.306-1.72 3.248-1.751 4.745-.074M164.79 253.363c-.078.334-.17 1.418-.206 2.408l-.063 1.8 2.833.574c9.477 1.919 9.858 2.636 8.903 16.737a5437.37 5437.37 0 00-.522 7.822 378.763 378.763 0 01-.525 6.957 367.573 367.573 0 00-.515 6.7c-.238 3.54-.47 6.41-1.408 17.524-1.387 16.411-2.06 17.805-9.282 19.179-3.563.677-3.59.684-3.795 1.007-.238.374-.257 2.654-.032 3.784l.169.84 5.436-.228a263.4 263.4 0 0121.33-.006l5.586.225.295-.997c.163-.549.259-1.629.213-2.4-.092-1.568.202-1.376-3.175-2.072-7.21-1.487-8.919-2.72-9.44-6.814-.542-4.258 1.456-51.094 2.213-51.899.352-.37.272-.52 1.56 2.917.372.993.836 2.21 1.033 2.705.309.783 1.85 4.97 2.845 7.732.18.495 1.855 5.018 3.725 10.05 1.87 5.032 3.955 10.714 4.635 12.626.854 2.406 1.71 4.812 2.568 7.216 2.417 6.78 5.263 15.549 6.108 18.812l.233.902 2.31.076c3.427.113 3.283.208 4.326-2.845 1.005-2.944 2.965-8.397 3.727-10.373.275-.708 1.257-3.319 2.185-5.799 1.546-4.137 2.625-6.92 6.495-16.75.753-1.914 1.777-4.522 2.277-5.799a4328.415 4328.415 0 017.722-19.523c.445-1.101.93-1.961 1.078-1.912.365.122.502 41.846.16 48.752-.407 8.219-.566 8.458-6.43 9.793-3.288.747-3.162.615-3.07 3.244l.075 2.167 3.609-.003c1.983-.001 6.622-.106 10.306-.23 4.663-.16 9.51-.128 15.933.103 10.807.387 10.013.576 10.062-2.4.04-2.338.276-2.096-2.682-2.752-7.776-1.721-8.561-2.562-9.01-9.648-1.211-19.122-1.832-58.616-.96-61.114.893-2.556 2.516-3.405 8.562-4.481 1.002-.178 1.947-.502 2.126-.728.361-.456.438-3.593.1-4.125-.283-.446-27.874-.137-27.98.314-1.403 5.865-4.121 13.384-9.556 26.438a2520.22 2520.22 0 00-2.564 6.185c-4.612 11.186-8.338 19.384-8.748 19.248-.307-.102-1.864-3.548-4.45-9.842-2.773-6.75-3.701-8.991-3.947-9.535-.365-.807-4.158-10.203-4.525-11.21a49.365 49.365 0 00-.89-2.19 88.577 88.577 0 01-1.293-3.221 254.117 254.117 0 00-2.063-5.154c-1.627-3.943-2.434-6.457-2.847-8.861-.172-1.01-.385-1.908-.469-2-.084-.09-6.904-.247-15.151-.35l-15-.184-.14.608m181.466 24.59c-1.86.664-7.042 1.71-10.625 2.143l-3.609.438v2.756l1.765.525c2.65.79 2.553.472 2.82 9.296.271 8.971.027 36.6-.339 38.423-.32 1.591-.797 2.078-2.441 2.49-1.744.436-1.933.623-1.933 1.894 0 1.63.112 1.662 4.639 1.379 3.605-.226 11.57-.116 13.529.187 1.187.184 1.52-.19 1.534-1.717l.012-1.345-1.805-.598a93.124 93.124 0 00-1.86-.604c-.935-.125-1.696-12.378-.768-12.378.51 0 .975.67 3.143 4.51 4.594 8.137 6.469 10.731 8.48 11.738l1.525.761 4.662-.023c6.84-.033 7.153-.095 7.598-1.5.46-1.456.187-1.906-1.29-2.119-1.906-.274-2.898-.856-4.382-2.573-2.406-2.778-7.205-9.752-9.808-14.248l-1.48-2.554.569-.796c.78-1.097 6.054-7.114 6.822-7.783.777-.677 3.184-1.802 4.633-2.165 1.198-.3 1.46-.771 1.31-2.346l-.084-.873-1.675.01c-4.468.029-14.977.477-15.08.643-.27.437-.19 2.626.102 2.806.172.106 1.09.336 2.04.511 2.89.533 3.275 1.433 1.719 4.018-2.52 4.184-7.52 9.014-8.817 8.516-.604-.232-.273-33.331.36-36.09.732-3.185.445-3.943-1.266-3.332m72.031 11.685c-1.027.684-3.085 1.804-4.573 2.49l-2.707 1.245v3.91c0 4.412.091 4.203-2.13 4.895-1.595.5-1.861.911-2.049 3.185-.085 1.029.33 1.238 2.54 1.28 1.754.035 1.639-.821 1.644 12.094.003 13.657.125 14.49 2.465 16.895 4.467 4.593 15.935 2.225 16.713-3.45.236-1.722-.07-2.02-1.438-1.4-1.483.667-4.195.676-5.177.016-1.895-1.273-1.873-1.127-1.873-13.177v-10.823l7.987-.257.306-2.062c.169-1.134.313-2.396.323-2.804l.017-.744-4.319.099-4.314.098v-12.755l-.773.01c-.483.007-1.477.48-2.642 1.255m-102.286 10.384c-1.8 1.072-6.34 2.365-12.098 3.446-.416.078-.587.358-.718 1.179-.197 1.228-.12 1.34 1.56 2.26 2.501 1.373 2.877 3.944 2.55 17.415-.217 8.853-.23 8.894-3.013 9.654l-1.637.446-.076 1.425c-.096 1.798-.24 1.753 4.479 1.453 3.518-.223 12.894-.113 15.054.177 1.172.158 1.533-.106 1.815-1.328.358-1.559.183-1.774-1.754-2.152-4.663-.91-4.414-.18-4.456-13.05l-.034-10.267.733-.587c1.605-1.286 4.31-.611 6.843 1.708 1.985 1.815 2.358 1.742 3.647-.72 3.628-6.925 3.11-10.56-1.575-11.044-2.213-.228-4.078.86-7.29 4.26l-2.607 2.759.047-3.35c.024-1.843.035-3.483.02-3.644-.049-.524-.652-.54-1.49-.04m-33.782.346c-2.862.771-7.318 2.99-9.637 4.8-1.692 1.32-2.912 6.485-1.716 7.27 1.767 1.156 2.08.982 3.518-1.945 1.518-3.09 2.085-3.562 4.52-3.756 4.13-.327 6.884 2.093 7.287 6.407.265 2.83.256 2.835-6.507 5.081-9.427 3.129-9.418 3.125-10.167 6.01-1.78 6.85 1.94 13.95 7.308 13.946 1.675-.002 4.588-1.175 7.284-2.935l1.928-1.26.251.66c.139.364.252.824.252 1.022 0 .69 1.714 2.099 2.919 2.402 2.947.742 7.39-.403 10.043-2.588 1.095-.902 1.772-4.602.77-4.217-4.127 1.584-4.474.703-4.445-11.267.024-10.03-.052-10.786-1.4-13.716-2.079-4.518-7.55-7.168-12.209-5.914m105.854-.245c-9.464 1.7-14.979 8.826-14.968 19.336.012 12.423 6.943 19.946 17.17 18.644 5.697-.726 12.415-5.41 13.227-9.22.54-2.53.288-2.726-1.728-1.35-7.421 5.067-16.52 1.79-18.05-6.498-.376-2.044-.274-2.194 1.6-2.347l8.29-.678c7.76-.635 9.358-.892 9.986-1.606.615-.704.571-1.971-.097-2.681-.3-.32-.71-1.314-.91-2.207-1.78-7.947-7.728-12.614-14.52-11.393m1.02 3.963c1.826.932 2.93 3.267 3.395 7.18.387 3.263.582 3.128-4.63 3.203-4.754.068-4.773.061-4.541-1.873.866-7.192 2.793-10.031 5.776-8.51m-102.92 15.843c.394 1.564-.265 10.739-.799 11.138-2.6 1.949-6.608-1.572-6.595-5.792.01-3.061.147-3.224 4.062-4.812 3.337-1.353 3.136-1.32 3.332-.534"
  />
  <path
    fill="#fff"
    d="M239.639 133.78c-12.907.54-17.447.794-17.91 1.002-.284.128-2.4.31-4.703.406-2.303.095-4.188.258-4.188.364 0 .105-1.523.274-3.383.375-1.861.101-3.573.282-3.801.4-.23.119-2.069.349-4.086.511-2.018.162-3.933.357-4.252.433-.321.076-1.917.3-3.548.498-5.908.72-7.604.972-7.73 1.152-.073.101-1.086.267-2.255.37-1.169.103-2.126.269-2.126.37 0 .101-1.13.322-2.514.49-3.002.366-3.212.402-3.542.604-.142.086-1.012.241-1.933.343-.92.104-1.792.278-1.932.388-.142.11-.983.282-1.869.383-.885.1-1.612.272-1.612.382 0 .109-.838.282-1.865.383-1.026.101-1.925.27-1.997.376-.072.104-1.174.374-2.45.597-2.84.498-4.73.928-5.413 1.23-.282.125-1.006.302-1.608.393-.601.091-1.155.263-1.228.384-.073.119-.77.295-1.548.393-.777.097-1.413.259-1.413.358 0 .1-.928.332-2.062.516-1.133.184-2.061.423-2.061.53 0 .105-.575.269-1.278.363-.702.092-1.338.268-1.414.39-.075.121-.657.298-1.293.394-.638.095-1.216.27-1.288.386-.073.117-.655.291-1.295.387-.64.097-1.163.258-1.163.358 0 .1-.777.33-1.726.51-.95.181-1.855.434-2.01.564-.156.128-.773.314-1.372.409-.598.096-1.146.268-1.217.383-.072.115-.65.287-1.282.382-.636.095-1.155.262-1.155.373 0 .11-.55.281-1.223.382-.674.1-1.3.306-1.393.455-.207.335-7.165.67-14.311.693-2.863.008-5.268.119-5.347.245-.078.127-1.186.314-2.463.415-1.276.1-2.321.273-2.321.384 0 .109-.752.28-1.672.378-.92.1-1.732.276-1.804.393-.073.117-.711.293-1.42.39-.71.098-1.288.262-1.288.364 0 .102-.754.337-1.675.52-.922.182-1.676.42-1.676.529 0 .108-.463.271-1.03.362-.567.09-1.03.267-1.03.39 0 .124-.407.302-.902.395-.497.094-.903.28-.903.416 0 .135-.133.246-.297.246-.341 0-3.116 1.331-3.313 1.59-.073.095-.449.252-.838.35-.388.097-.706.255-.706.35 0 .096-.318.316-.71.49-.388.175-.939.462-1.222.64-1.01.632-2.067 1.345-2.375 1.601a49.46 49.46 0 01-1.749 1.377c-1.927 1.476-2.648 2.102-4.546 3.942-1.113 1.081-2.025 2.086-2.025 2.234 0 .148-.089.306-.198.353-.11.048-.718.724-1.353 1.504s-1.241 1.456-1.348 1.503c-.106.047-.193.254-.193.459 0 .205-.17.439-.376.518-.209.08-.448.364-.533.635-.104.3-.26.579-.46.824-.398.433-.874 1.18-1.271 1.988-.174.354-.457.79-.626.966-.168.177-.605.93-.971 1.674-.858 1.738-1.112 2.127-2.205 3.383-1.69 1.939-5.509 5.57-5.867 5.577-.105.002-.811.64-1.571 1.417-.76.778-1.47 1.414-1.577 1.414-.246 0-10.829 10.551-10.829 10.796 0 .1-.402.582-.894 1.07-.49.49-.897.986-.902 1.103-.003.117-.326.541-.715.942-.39.401-1.17 1.378-1.732 2.17-.563.793-1.114 1.442-1.225 1.442-.11 0-.2.156-.2.347 0 .19-.233.556-.516.813-.283.257-.517.622-.517.812 0 .192-.12.348-.27.348-.148 0-.392.348-.54.772-.148.426-.35.774-.443.774-.096 0-.46.55-.812 1.223-.352.673-.763 1.34-.914 1.482-.152.142-.557.81-.902 1.483-.344.672-.701 1.223-.792 1.223-.091 0-.245.319-.344.706-.097.389-.264.766-.372.838-.301.202-2.34 4.58-2.34 5.022 0 .215-.117.392-.259.392-.14 0-.26.146-.265.323-.005.176-.234.785-.507 1.353-.274.566-.503 1.223-.507 1.46-.005.236-.097.468-.202.515-.242.108-1.62 4.306-1.615 4.918.003.248-.098.451-.223.451s-.308.635-.406 1.413c-.096.777-.27 1.471-.386 1.542-.114.072-.29.799-.393 1.616-.101.816-.3 1.626-.441 1.799-.141.172-.364 1.274-.494 2.448a101.773 101.773 0 01-.353 2.907c-.296 1.93-.4 10.337-.161 13.013.478 5.36 1.362 10.896 1.828 11.467.118.142.295.81.394 1.482.1.674.285 1.225.412 1.225.125 0 .227.225.227.499 0 .62 1.304 4.735 1.555 4.912.103.071.265.507.366.967.1.46.275.837.39.837.115 0 .286.406.379.902.092.496.264.903.38.903.117 0 .36.522.538 1.159.178.638.426 1.16.549 1.16.124 0 .225.223.225.496s.159.656.352.85c.193.194.433.608.533.92.099.312.276.569.392.569.117 0 .293.317.39.706.096.388.255.765.349.837.096.072.517.798.938 1.613.42.815.846 1.482.945 1.482.101 0 .26.35.354.78.445 2.03 3 5.79 4.123 6.072.318.08.694.4.836.712.282.617 1.027 1.556 2.291 2.884.445.468.852.967.903 1.11.517 1.445 13.77 14.393 18.502 18.077.455.354 1.074.852 1.376 1.107.3.254.931.699 1.398.987.467.29.85.632.85.762s.147.237.329.237c.18 0 .526.23.77.515.242.283.616.516.83.516.213 0 .39.117.39.262 0 .145.318.404.708.575.39.17.8.458.914.638.114.18.375.328.58.328.205 0 .373.105.373.235 0 .232 2.274 1.77 3.158 2.138.248.103.45.306.45.453 0 .147.151.266.335.266.184 0 .56.178.837.394.86.675 3.244 2.184 3.45 2.184.108 0 .463.232.79.514.327.284.75.516.942.516.191 0 .346.113.346.253 0 .138.29.326.645.414.355.089.645.265.645.392 0 .126.159.23.355.23.195 0 .493.168.665.372.168.206.734.513 1.254.681.521.17 1.04.466 1.153.658.113.193.372.35.58.35.204 0 .372.104.372.23s.319.309.707.406c.389.098.765.255.838.35.072.095.827.521 1.678.947.85.425 1.605.85 1.677.945.073.095.45.253.84.352.39.097.772.28.85.406.169.272 4.34 2.292 4.735 2.292.15 0 .273.115.273.257 0 .142.144.26.322.266.177.005.785.233 1.353.507.565.273 1.175.502 1.352.507.178.005.322.125.322.266 0 .141.118.258.261.258.325 0 2.535.956 6.185 2.679.782.369 1.536.675 1.676.68.14.003.833.292 1.542.64.71.35 1.491.636 1.74.637.248 0 .451.113.451.249 0 .134.406.32.901.415.497.092.902.267.902.386 0 .12.407.293.902.387.497.093.902.25.902.349 0 .189 2.562.936 2.9.845.106-.028.192.06.192.194 0 .136.406.322.902.415.496.094.902.266.902.383 0 .117.523.292 1.16.387.638.096 1.16.272 1.16.39 0 .12.405.293.902.387.496.092.902.258.902.37 0 .109.753.34 1.675.514.92.174 1.675.409 1.675.522 0 .114.463.285 1.03.38.565.096 1.088.27 1.16.387.072.117.596.291 1.161.386.565.097 1.03.267 1.03.38 0 .114.522.284 1.16.38.637.096 1.159.272 1.159.393 0 .12.812.356 1.804.523.992.167 1.804.398 1.804.514 0 .116.58.29 1.287.388.71.097 1.29.267 1.29.378 0 .11.469.275 1.042.367.573.091 1.24.273 1.482.401.493.265 1.96.66 4.434 1.196.921.198 1.868.473 2.103.608.236.136 1.021.325 1.744.421.726.097 1.376.27 1.447.384.071.116.678.289 1.347.385.67.097 1.334.267 1.476.378.142.11.837.284 1.546.386.708.102 1.405.27 1.547.374.142.103 1.184.333 2.319.51 1.134.175 2.177.412 2.319.526.142.114 1.04.29 1.996.39.958.101 1.74.273 1.74.382 0 .11.754.279 1.675.377.921.099 1.676.27 1.676.382 0 .11.768.28 1.708.376.94.096 2.129.357 2.642.58.528.23 2.02.463 3.445.539 1.382.074 2.513.223 2.513.333 0 .11 1.101.283 2.447.384 1.347.1 2.45.275 2.45.388 0 .113.87.286 1.936.386 1.064.1 1.992.272 2.059.382.067.109 1.197.282 2.509.384 1.311.101 2.502.265 2.642.362.142.1.664.209 1.16.246.497.036 1.599.174 2.449.307.85.132 2.153.24 2.899.241.744.001 1.353.105 1.353.231 0 .127 1.536.313 3.415.415 1.876.102 3.53.28 3.672.395.142.114 1.91.29 3.93.393 2.019.103 3.671.268 3.671.368 0 .1.726.21 1.61.244 2.106.083 7.573.484 9.858.722 2.526.263 52.458.225 54.502-.042.922-.12 3.3-.194 5.283-.164 7.77.122 15.353-.577 21.776-2.006a72.118 72.118 0 014.381-.806c1.203-.174 2.422-.415 2.705-.533.284-.118 1.763-.29 3.286-.383 1.524-.093 2.77-.264 2.77-.378 0-.116 1.102-.292 2.448-.393 1.347-.1 2.45-.272 2.45-.38 0-.108.984-.278 2.188-.38 1.203-.1 2.247-.274 2.317-.387.07-.113 1.317-.348 2.771-.523 1.454-.176 2.76-.408 2.901-.516.142-.11.983-.28 1.87-.381.886-.1 1.666-.273 1.735-.385.069-.11.878-.283 1.8-.381.923-.099 1.735-.272 1.805-.386.07-.115.884-.29 1.806-.388.924-.098 1.68-.262 1.68-.364 0-.101.941-.323 2.092-.49 1.153-.168 2.224-.409 2.384-.535.16-.126.841-.31 1.515-.408.673-.097 1.224-.275 1.224-.394 0-.12.58-.297 1.287-.395.71-.098 1.29-.276 1.29-.398 0-.121.696-.3 1.546-.396.85-.096 1.546-.257 1.546-.358 0-.1.986-.33 2.189-.509 1.206-.18 2.192-.416 2.192-.527 0-.11.636-.281 1.413-.377.778-.098 1.47-.27 1.54-.383.07-.113.71-.283 1.422-.378.712-.093 1.295-.268 1.295-.387 0-.118.58-.292 1.287-.386.71-.094 1.289-.273 1.289-.397s.812-.37 1.804-.547c.992-.178 1.804-.42 1.804-.539 0-.12.285-.216.634-.216.349 0 1.223-.233 1.943-.516.719-.283 1.542-.515 1.828-.515.287 0 .46-.101.382-.226-.077-.124.346-.302.939-.397.593-.095 1.199-.269 1.347-.385.15-.118.88-.356 1.624-.53.745-.175 1.419-.423 1.498-.55.078-.128.34-.236.578-.24.24-.006.9-.233 1.467-.507.568-.273 1.234-.502 1.482-.507.249-.004.45-.098.45-.208 0-.11.494-.328 1.095-.487 1.39-.366 3.633-1.195 3.801-1.407.072-.088.505-.243.967-.343.461-.1.839-.289.839-.419s.263-.236.587-.236c.322 0 .815-.157 1.094-.35.28-.19.833-.425 1.227-.521.396-.097 1.614-.585 2.706-1.084 2.578-1.179 2.779-1.268 4.306-1.908a29.47 29.47 0 001.933-.886c.472-.232.97-.408 1.482-.526.46-.097.837-.276.837-.395 0-.12.35-.293.774-.387.425-.093.773-.276.773-.406 0-.131.128-.238.283-.238.156 0 .648-.166 1.094-.37 1.153-.524 2.734-.915 3.712-.917.46 0 .839-.1.839-.222 0-.12 1.07-.288 2.381-.371 1.311-.084 2.733-.266 3.159-.404.424-.139 1.643-.508 2.705-.82 1.063-.313 1.99-.642 2.061-.73.071-.089.626-.499 1.233-.91.608-.413 1.708-1.493 2.45-2.4.8-.986 1.602-1.969 2.408-2.95.586-.715 1.17-1.662 1.296-2.109.16-.561.623-1.067 1.512-1.644.704-.46 1.465-1.01 1.69-1.224.223-.216.49-.39.589-.39.101 0 .323-.12.493-.263 1.244-1.048 1.593-1.284 1.898-1.284.191 0 .348-.094.348-.208 0-.245 3.019-2.368 3.368-2.368.132 0 .24-.088.24-.194.003-.107.404-.467.896-.802.49-.335 1.172-.857 1.513-1.16.47-.411.95-.81 1.444-1.195a58.46 58.46 0 001.304-1.047c.263-.221.792-.628 1.176-.902.384-.274 1.31-1.079 2.057-1.787.75-.709 1.621-1.463 1.936-1.676.361-.252.694-.546.986-.874.228-.268.626-.674.888-.902 1.265-1.103 8.672-8.648 8.672-8.834 0-.117.436-.656.967-1.2 1.09-1.113 1.66-1.79 2.755-3.27.418-.564.911-1.118 1.097-1.232.184-.113.335-.332.335-.486 0-.154.261-.526.58-.828.319-.301.926-1.069 1.352-1.704.426-.636.844-1.215.932-1.286.088-.07.24-.39.34-.708.1-.319.29-.58.422-.58s.24-.156.24-.346c0-.192.232-.615.515-.942.284-.327.516-.741.516-.92 0-.18.09-.365.2-.412.113-.046.547-.781.967-1.632.42-.85.909-1.7 1.087-1.887.178-.186.322-.505.322-.708 0-.202.107-.368.238-.368.13 0 .313-.348.407-.774.094-.424.261-.772.373-.772.113 0 .349-.522.53-1.16.177-.638.412-1.16.519-1.16.108 0 .272-.406.365-.901.093-.497.267-.902.388-.902.119 0 .292-.319.383-.709.145-.618.432-1.325 1.186-2.912.105-.22.337-1.06.518-1.869.182-.807.417-1.468.523-1.468.106 0 .272-.58.369-1.289.096-.708.277-1.288.397-1.288.123 0 .3-.696.397-1.547.096-.85.264-1.545.379-1.545.112 0 .285-.783.383-1.74.1-.957.277-1.86.396-2.01.74-.93.902-17.119.21-20.99a117.088 117.088 0 01-.536-3.414c-.156-1.098-.368-1.997-.474-1.997-.104 0-.27-.639-.368-1.418-.097-.78-.27-1.417-.382-1.417-.115 0-.283-.575-.377-1.278-.092-.703-.264-1.337-.382-1.41-.118-.072-.362-.834-.545-1.692-.182-.86-.43-1.623-.553-1.699-.12-.074-.22-.364-.22-.644s-.162-.57-.361-.646c-.196-.076-.436-.652-.53-1.281-.096-.628-.268-1.142-.384-1.142-.118 0-.29-.406-.383-.902-.093-.497-.262-.902-.374-.902-.113 0-.349-.473-.52-1.051-.37-1.233-1.482-3.34-1.97-3.733-.187-.15-.418-.585-.513-.965-.097-.382-.271-.693-.388-.693-.118 0-.36-.407-.539-.902-.18-.497-.42-.902-.532-.902-.114 0-.206-.178-.206-.395a.638.638 0 00-.386-.544c-.213-.08-.388-.243-.388-.36 0-.116-.463-.91-1.03-1.764-.567-.853-1.031-1.62-1.031-1.703 0-.159-.034-.203-1.288-1.677-.422-.496-.835-1.105-.917-1.353-.082-.248-.26-.45-.397-.45-.134 0-.356-.29-.49-.646-.135-.353-.335-.644-.446-.645-.109-.002-.488-.431-.843-.954a15.035 15.035 0 00-1.353-1.683c-.39-.4-.71-.84-.71-.978 0-.137-.173-.249-.384-.249-.213 0-.388-.125-.388-.276 0-.57-13.561-13.775-14.505-14.126-.15-.055-.596-.433-.992-.839-.397-.405-.8-.736-.896-.736-.097 0-.565-.4-1.04-.89-.476-.49-1.416-1.263-2.088-1.718-.674-.455-1.397-.986-1.61-1.18-1.013-.922-1.655-1.366-1.972-1.366-.19 0-.347-.122-.347-.271 0-.15-.339-.389-.752-.533-.414-.145-.816-.428-.894-.632-.078-.202-.27-.368-.426-.368-.156 0-.435-.145-.62-.322a8.67 8.67 0 00-.915-.709 28.891 28.891 0 01-1.166-.837c-.325-.249-.722-.45-.88-.45-.16 0-.357-.175-.439-.388-.081-.212-.281-.386-.445-.386-.16 0-.866-.406-1.563-.902-.698-.496-1.368-.902-1.492-.902-.121 0-.362-.117-.533-.261-.644-.54-2.277-1.542-2.514-1.542a.246.246 0 01-.246-.241c0-.132-.255-.321-.568-.421-.313-.099-.726-.34-.92-.533-.194-.193-.505-.352-.69-.352-.184 0-.473-.166-.643-.37-.168-.204-.647-.445-1.062-.536-.415-.091-.755-.265-.755-.386 0-.12-.261-.3-.58-.4-.319-.1-.637-.254-.71-.342-.07-.09-.797-.495-1.615-.901-.818-.407-1.55-.84-1.626-.965-.076-.122-.355-.223-.62-.223s-.65-.169-.856-.374c-.206-.206-.677-.45-1.049-.543-.373-.094-.674-.261-.674-.372 0-.11-.32-.281-.708-.378-.387-.098-.765-.255-.837-.35-.196-.26-2.972-1.59-3.314-1.59-.163 0-.295-.108-.295-.239 0-.13-.35-.312-.774-.406-.426-.094-.773-.277-.773-.407 0-.131-.123-.238-.272-.238-.265 0-1.588-.555-3.74-1.568-.576-.271-1.242-.494-1.481-.494-.239 0-.435-.115-.435-.257a.266.266 0 00-.264-.257h-.008c-.149 0-.815-.239-1.481-.53l-1.725-.753c-.284-.122-1.175-.522-1.981-.887-.806-.366-1.648-.665-1.868-.665-.221 0-.403-.107-.403-.237s-.356-.315-.79-.412a7.125 7.125 0 01-1.482-.534c-.38-.198-.895-.36-1.143-.362-.248-.001-.45-.098-.45-.218 0-.119-.638-.37-1.418-.556-.78-.188-1.417-.432-1.417-.545 0-.113-.409-.282-.905-.374-.497-.094-.963-.264-1.032-.377-.07-.113-.591-.284-1.157-.38-.566-.095-1.029-.267-1.029-.38 0-.113-.435-.287-.967-.387-.532-.099-1.082-.269-1.224-.376-.141-.107-.838-.346-1.546-.531-.71-.187-1.405-.426-1.546-.533-.142-.107-.694-.275-1.228-.375-.532-.1-1.026-.275-1.095-.388-.07-.113-.591-.283-1.156-.38-.566-.095-1.09-.273-1.165-.393-.074-.122-.656-.3-1.293-.395-.637-.095-1.217-.27-1.29-.39-.074-.118-.827-.353-1.672-.519-.846-.166-1.54-.392-1.54-.503 0-.11-.578-.279-1.287-.376-.71-.098-1.288-.272-1.288-.387 0-.115-.58-.29-1.288-.387-.71-.097-1.288-.265-1.288-.375 0-.108-.593-.267-1.316-.353-.724-.086-1.456-.271-1.624-.412-.17-.14-1.144-.393-2.165-.561-1.019-.169-1.853-.393-1.853-.497 0-.105-.638-.27-1.414-.367-.777-.098-1.472-.27-1.543-.386-.072-.116-.766-.289-1.546-.386-.779-.098-1.479-.277-1.554-.4-.075-.121-.774-.3-1.554-.398-.778-.097-1.473-.27-1.543-.382-.07-.113-1.169-.348-2.444-.522-1.275-.173-2.319-.404-2.319-.511 0-.107-.81-.277-1.804-.377-.991-.1-1.804-.275-1.804-.39 0-.115-.869-.292-1.932-.39-1.063-.1-1.933-.271-1.933-.38 0-.108-.782-.28-1.74-.38-.955-.103-1.854-.276-1.996-.387-.142-.11-1.476-.345-2.963-.52-1.488-.177-2.822-.41-2.964-.519-.142-.108-1.127-.281-2.19-.384-1.064-.102-2.049-.275-2.19-.385-.143-.11-1.389-.281-2.77-.38-1.384-.102-2.515-.276-2.515-.388 0-.11-1.13-.286-2.511-.389-1.383-.102-2.63-.281-2.774-.398-.144-.116-2.144-.36-4.445-.542-2.301-.182-4.186-.412-4.186-.511 0-.1-1.621-.264-3.606-.366-1.985-.102-3.608-.274-3.608-.383 0-.11-1.826-.281-4.059-.383-2.232-.103-4.177-.28-4.323-.397-.247-.199-6.95-.552-19.32-1.018-6.435-.242-26.33-.227-32.341.024m36.423 7.32c7.325.364 20.35 1.27 22.331 1.555.497.07 2.584.299 4.64.506 6.57.664 10.615 1.179 18.294 2.326 7.482 1.119 20.344 3.517 26.157 4.877 7.513 1.758 9.896 2.348 15.204 3.766.993.265 2.095.557 2.449.649 2.14.552 12.441 3.73 16.364 5.05 8.804 2.962 18.99 6.942 25.255 9.87 1.371.64 2.55 1.165 2.62 1.165.3 0 11.245 5.582 14.361 7.326 51.858 29.002 71.386 68.353 52.719 106.231-8.213 16.666-22.248 30.787-45.177 45.454-.914.585-.995.736-1.083 2.008-.246 3.622-4.284 6.049-10.17 6.112l-3.478.039-3.994 1.935c-22.697 11.002-49.08 19.304-79.242 24.934-32.834 6.13-71.668 8.234-107.33 5.818-6.485-.44-13.703-1.057-16.624-1.42a599.47 599.47 0 00-5.668-.666c-11.734-1.328-31.713-4.75-40.459-6.931-.283-.071-3.182-.775-6.442-1.564-3.26-.789-6.448-1.591-7.087-1.783-.637-.19-2.087-.602-3.221-.912-23.618-6.482-49.828-17.542-66.047-27.872-9.514-6.06-16.446-11.222-22.6-16.83a595.308 595.308 0 00-3.417-3.093c-1.611-1.442-6.81-7.25-9.436-10.546-16.781-21.058-20.631-45.136-10.86-67.939 5.85-13.653 17.007-26.87 33.421-39.589 1.212-.938 1.492-1.347 2.388-3.478 7.622-18.138 25.556-27.75 50.782-27.214l6.185.131 5.411-1.75c2.976-.962 6.281-2.001 7.345-2.31a76.588 76.588 0 002.576-.785c5.836-2.03 28.165-7.278 38.268-8.993.85-.144 2.59-.443 3.866-.663 27.513-4.734 63.099-6.835 91.7-5.415m-171.417 28.5c-1.182.576-2.099 1.098-2.038 1.158.158.159 4.563-1.788 4.569-2.019.007-.33-.316-.22-2.53.86"
  />
  <path
    fill="#fef200"
    d="M234.871 141.13c-17.176.881-36.018 2.89-50.508 5.383-1.276.22-3.015.519-3.866.663-9.25 1.57-25.74 5.37-35.176 8.107a574.961 574.961 0 01-4.123 1.183c-.495.139-1.192.348-1.545.466-.355.119-3.284 1.063-6.508 2.099-3.224 1.037-5.862 1.96-5.862 2.053 0 .094.899.247 1.997.34 1.987.168 6.216.814 13.594 2.075 2.125.365 4.184.663 4.574.663.866.001.866-.026.21 4.455-.802 5.472-1.28 10.712-1.573 17.193-.339 7.538-.168 7.217-3.856 7.21-1.908-.004-1.93-.032-2.306-2.83-1.64-12.236-4.218-16.7-11.697-20.251-5.757-2.734-19.322-3.482-21.043-1.16-.283.38-3.915 1.826-4.178 1.664-.17-.105-.21-.057-.1.123.112.178.017.297-.235.297-1.143 0-5.485 4.11-7.236 6.847-4.56 7.132-6.805 17.111-6.805 30.268 0 27.876 11.655 46.672 28.99 46.748 7.352.032 8.239-1.106 8.62-11.064.724-18.943.261-19.739-12.614-21.665-1.492-.223-1.54-.314-1.542-3.106-.006-3.15-.703-2.932 8.503-2.663 8.97.26 23.541.269 29.246.016 4.703-.209 4.51-.322 4.506 2.647-.005 2.664-.088 2.886-1.159 3.133-6.832 1.574-6.83 1.568-6.82 16.149.005 11.235-.008 11.154 2.109 12.888 1.263 1.035 1.275 1.103.665 3.51-.3 1.187-.482 1.317-2.78 1.988-7.412 2.162-13.62 3.568-19.259 4.363-26.834 3.786-47.63-4.725-56.339-23.057-6.22-13.093-7.134-33.643-2.077-46.736.343-.89-6.11 4.193-11.03 8.688-28.58 26.112-36.205 56.155-21.657 85.335 3.82 7.666 12.487 19.186 18.429 24.497.601.539 2.14 1.932 3.415 3.094 6.154 5.607 13.086 10.77 22.6 16.83 9.96 6.343 26.145 14.143 40.72 19.625 6.904 2.598 18.487 6.368 25.327 8.246a176.4 176.4 0 013.221.912c.638.192 3.828.994 7.087 1.783 3.26.789 6.158 1.493 6.442 1.564 8.745 2.18 28.726 5.603 40.459 6.931 1.985.224 4.534.524 5.67.666 25.373 3.164 63.426 3.148 93.544-.038 13.001-1.376 23.96-3.051 36.979-5.653 26.83-5.362 51.24-13.31 72.914-23.742l4.238-2.04-1.295-.6c-4.345-2.014-4.723-3.494-4.728-18.49-.005-12.915.11-12.059-1.643-12.094-2.211-.042-2.626-.251-2.54-1.28.187-2.274.453-2.685 2.049-3.185 2.22-.692 2.129-.483 2.129-4.895v-3.91l2.701-1.243c1.486-.683 3.563-1.808 4.616-2.5 1.154-.758 2.205-1.257 2.646-1.257h.732v12.755l4.316-.098 4.317-.099-.017.744c-.01.408-.154 1.67-.322 2.804l-.306 2.062-3.994.129-3.994.128v10.823c0 12.05-.021 11.897 1.873 13.18.945.64 3.948.638 5.166-.004.47-.248.991-.406 1.157-.35.166.055 1.58-.712 3.14-1.706 70.53-44.89 66.625-108.09-9.3-150.552-3.117-1.744-14.061-7.326-14.362-7.326-.069 0-1.247-.525-2.62-1.166-10.177-4.754-30.63-12.087-41.62-14.92a384.88 384.88 0 01-2.447-.648c-5.309-1.418-7.692-2.008-15.204-3.766-5.813-1.36-18.675-3.758-26.156-4.877-7.68-1.147-11.728-1.662-18.296-2.326a200.2 200.2 0 01-4.64-.506c-11.072-1.587-46-2.425-63.522-1.524M172.71 200.9c.31.117.35.763.24 3.798l-.131 3.655 2.665-2.79c3.93-4.115 6.225-5.105 9.075-3.915 2.69 1.125 2.922 3.415.842 8.34-1.998 4.736-2.384 5.013-4.406 3.165-2.683-2.452-5.706-3.232-7.176-1.85l-.665.623v9.942c.004 13.15-.325 12.335 5.448 13.532.866.18 1.006.57.707 1.974l-.242 1.134-10.494-.018-10.495-.019v-1.392c0-1.323.04-1.405.774-1.63 2.176-.67 3.013-1.062 3.263-1.527.475-.889.776-10.237.553-17.235-.242-7.63-.197-7.489-2.761-8.79l-1.498-.759.166-1.04c.225-1.403.244-1.422 1.636-1.62 3.286-.468 9.041-2.137 11.138-3.229 1.086-.565.914-.522 1.361-.35m157.42.308c.02.248.014 1.958-.015 3.8l-.05 3.35 1.236-1.398c3.885-4.398 5.742-5.681 8.22-5.685 4.92-.008 5.768 3.757 2.346 10.435-1.566 3.058-1.806 3.153-3.677 1.444-2.598-2.373-5.179-3.145-6.81-2.037l-.902.612-.073 9.912c-.097 12.78-.194 12.397 3.423 13.274 3.203.776 3.234.807 2.71 2.692l-.25.902-10.507-.018-10.508-.019v-1.392c0-1.324.039-1.405.774-1.626 3.889-1.175 3.727-.707 3.905-11.376.224-13.52.004-14.773-2.853-16.197l-1.474-.735.176-1.069c.234-1.413.19-1.369 1.595-1.57 3.2-.46 9.066-2.172 11.15-3.257 1.145-.598 1.536-.607 1.583-.042m-118.144.467c16.087 3.684 17.61 29.907 2.1 36.128-11.253 4.513-21.768-.499-24.463-11.663-3.69-15.28 7.764-27.81 22.363-24.465m90.28.01c4.366 1.296 7.978 5.928 8.88 11.386.101.608.477 1.454.836 1.881.92 1.091.609 2.786-.572 3.134-1.287.379-8.708 1.168-14.045 1.494-5.49.334-5.505.34-5.287 1.922 1.249 9 10.853 12.64 18.415 6.978 2.547-1.906 2.322 1.755-.28 4.595-11.841 12.924-28.55 5.759-28.564-12.25-.012-13.117 9.905-22.322 20.616-19.14m64.509.085c3.995.596 3.664.266 3.307 3.303a108.266 108.266 0 00-.453 5.219c-.185 3.163-.06 2.927-1.586 2.948l-1.207.015-.544-2.061c-.298-1.135-.721-2.467-.938-2.964-2.184-4.999-9.235-4.79-9.233.274.003 2.745 1.23 3.808 9.318 8.082 5.209 2.75 7.647 7.802 6.281 13.014-2.174 8.308-11.27 11.808-22.213 8.548-2.169-.645-2.004-.225-2.545-6.467-.506-5.828-.532-5.51.48-5.876 1.612-.583 1.835-.462 2.36 1.29 1.952 6.514 6.903 10.219 11.005 8.233 3.867-1.873 2.501-5.836-3.075-8.92-9.081-5.022-11.742-9.494-9.971-16.76 1.604-6.592 8.496-9.448 19.014-7.878m-120.839 1.663c.288 1.463.092 1.712-1.852 2.34-1.958.634-2.009.848-1.1 4.705 1.408 5.965 3.429 13.337 3.756 13.693.373.407 5.455-14.723 6.414-19.097l.156-.709h5.58l.707 2.383c1.48 4.993 6.27 18.232 6.596 18.232.529 0 4.63-14.781 4.63-16.691 0-1.282-.904-1.96-3.38-2.536-2.339-.543-2.435-.648-2.123-2.314l.22-1.18 15.837-.085.16 1.066c.224 1.495-.125 1.953-1.919 2.517-2.845.896-3.602 1.881-5.35 6.96-2.486 7.227-5.547 16.585-7.17 21.928-1.293 4.247-.87 3.864-4.273 3.864h-2.917l-.637-1.933c-3.505-10.65-6.236-17.886-6.55-17.366-.372.615-4.53 12.094-6.176 17.052l-.794 2.392-5.98-.145-.295-1.16c-3.82-15.03-7.112-26.24-8.553-29.125-.777-1.555-1.552-2.117-3.659-2.653-1.371-.35-1.41-.387-1.491-1.338-.19-2.246-1.095-2.062 10.055-2.034l9.87.025.238 1.21m-41.776 1.824c-6.225 2.707-4.469 27.427 2.144 30.19 4.429 1.85 6.88-2.695 6.9-12.787.023-12.213-3.848-19.663-9.044-17.403m90.978-.135c-1.444.617-2.647 3.397-3.205 7.406-.445 3.186-.457 3.174 3.108 3.174 6.324 0 6.384-.034 5.93-3.403-.715-5.323-3.152-8.323-5.834-7.177M195.084 253.29c.084.092.296.99.468 2 .412 2.404 1.22 4.918 2.847 8.86a249.26 249.26 0 012.062 5.155 86.472 86.472 0 001.295 3.22c.308.71.708 1.695.888 2.19.367 1.008 4.16 10.404 4.525 11.211.246.544 1.174 2.786 3.946 9.535 2.586 6.294 4.144 9.74 4.45 9.842.411.136 4.138-8.062 8.75-19.248.613-1.488 1.766-4.271 2.563-6.185 5.435-13.054 8.153-20.573 9.556-26.438.107-.45 27.698-.76 27.98-.314.337.532.261 3.669-.1 4.125-.18.226-1.124.55-2.126.728-6.045 1.076-7.67 1.925-8.562 4.481-.872 2.498-.252 41.992.96 61.114.449 7.086 1.234 7.927 9.012 9.648 2.956.656 2.72.414 2.68 2.752-.049 2.976.745 2.787-10.062 2.4-6.423-.231-11.27-.262-15.932-.104-3.684.125-8.324.23-10.308.231l-3.609.003-.074-2.167c-.092-2.629-.218-2.497 3.07-3.244 5.865-1.335 6.023-1.574 6.43-9.793.342-6.906.204-48.63-.16-48.752-.147-.049-.633.811-1.078 1.912-2.59 6.5-5.164 13.01-7.722 19.523-.5 1.277-1.524 3.885-2.277 5.8-3.87 9.828-4.948 12.612-6.495 16.75a909.161 909.161 0 01-2.185 5.798c-.762 1.976-2.721 7.429-3.728 10.373-1.042 3.053-.896 2.958-4.324 2.845l-2.31-.076-.234-.902c-.845-3.263-3.69-12.032-6.108-18.812-.858-2.404-1.713-4.81-2.568-7.216-.68-1.912-2.766-7.594-4.634-12.627a3238.638 3238.638 0 01-3.725-10.05c-.996-2.76-2.538-6.948-2.846-7.73-.196-.496-.662-1.713-1.032-2.706-1.288-3.437-1.21-3.287-1.56-2.917-.757.805-2.756 47.641-2.213 51.899.52 4.094 2.23 5.327 9.44 6.814 3.377.696 3.082.504 3.174 2.072.046.771-.05 1.851-.212 2.4l-.296.997-5.585-.225a263.347 263.347 0 00-21.33.006l-5.437.228-.168-.84c-.225-1.13-.207-3.41.03-3.784.205-.323.233-.33 3.796-1.007 7.221-1.374 7.895-2.768 9.282-19.179.938-11.115 1.17-13.983 1.407-17.523.138-2.056.37-5.07.516-6.701.144-1.63.381-4.76.526-6.957.144-2.198.38-5.717.522-7.822.955-14.101.573-14.818-8.903-16.737l-2.834-.574.063-1.8c.035-.99.128-2.074.205-2.408l.142-.608 14.999.184c8.249.103 15.068.26 15.153.35m152.847 25.584c.003.336-.18 1.422-.41 2.413-.63 2.758-.962 35.857-.358 36.089 1.297.498 6.297-4.332 8.817-8.516 1.556-2.585 1.171-3.485-1.72-4.018-.95-.175-1.867-.405-2.039-.51-.291-.181-.373-2.37-.102-2.807.103-.166 10.612-.614 15.08-.642l1.676-.011.083.873c.15 1.575-.112 2.046-1.311 2.346-1.448.363-3.855 1.488-4.632 2.165-.767.669-6.042 6.686-6.822 7.783l-.567.796 1.478 2.554c2.603 4.496 7.404 11.47 9.808 14.248 1.486 1.717 2.477 2.299 4.383 2.573 1.476.213 1.75.663 1.29 2.12-.446 1.404-.76 1.466-7.599 1.5l-4.662.022-1.524-.761c-2.012-1.007-3.887-3.601-8.48-11.737-2.17-3.842-2.635-4.51-3.143-4.51-.928 0-.169 12.252.767 12.377.031.004.87.276 1.862.604l1.803.598-.012 1.345c-.013 1.527-.347 1.901-1.534 1.717-1.96-.303-9.924-.413-13.529-.187-4.527.283-4.64.251-4.64-1.379 0-1.271.191-1.458 1.934-1.894 1.644-.412 2.122-.899 2.442-2.49.365-1.822.61-29.452.336-38.423-.264-8.824-.168-8.505-2.818-9.296l-1.763-.525v-2.756l3.607-.438c3.583-.434 8.765-1.48 10.626-2.143 1.127-.403 1.66-.11 1.671.92m-30.438 21.189c.016.16.006 1.801-.019 3.644l-.048 3.35 2.609-2.76c3.211-3.399 5.076-4.487 7.289-4.259 4.686.484 5.203 4.119 1.576 11.045-1.29 2.46-1.663 2.534-3.646.719-2.536-2.32-5.24-2.994-6.845-1.708l-.734.587.035 10.267c.043 12.87-.207 12.14 4.456 13.05 1.937.378 2.112.593 1.754 2.152-.281 1.222-.642 1.486-1.816 1.328-2.16-.29-11.535-.4-15.053-.177-4.718.3-4.575.345-4.478-1.453l.075-1.425 1.636-.446c2.784-.76 2.797-.801 3.013-9.654.329-13.471-.048-16.042-2.55-17.414-1.678-.921-1.756-1.033-1.558-2.261.13-.82.3-1.1.718-1.18 5.757-1.08 10.298-2.373 12.097-3.445.839-.5 1.441-.484 1.49.04m-30.297.305c3.035.785 5.98 3.195 7.233 5.915 1.347 2.93 1.425 3.686 1.4 13.716-.03 11.97.319 12.85 4.447 11.267 1-.385.323 3.315-.771 4.217-2.654 2.185-7.097 3.33-10.044 2.588-1.205-.303-2.919-1.713-2.919-2.402 0-.198-.113-.658-.253-1.021l-.25-.66-1.928 1.259c-2.695 1.76-5.609 2.933-7.284 2.935-5.367.004-9.088-7.096-7.308-13.946.75-2.885.74-2.881 10.167-6.01 6.763-2.246 6.772-2.252 6.507-5.08-.403-4.315-3.156-6.735-7.289-6.408-2.433.194-3 .665-4.518 3.756-1.436 2.927-1.75 3.101-3.518 1.944-1.195-.784.024-5.949 1.717-7.27 4.847-3.782 10.884-5.765 14.611-4.8m107.234.365c3.918 1.428 6.972 5.461 8.164 10.784.201.893.61 1.887.91 2.207.668.71.713 1.977.097 2.681-.627.714-2.225.97-9.986 1.606l-8.29.678c-1.873.153-1.976.303-1.6 2.347 1.53 8.288 10.629 11.565 18.05 6.498 2.016-1.376 2.267-1.18 1.728 1.35-.811 3.81-7.53 8.494-13.227 9.22-10.227 1.302-17.156-6.221-17.17-18.644-.012-10.51 5.504-17.635 14.968-19.336 1.478-.266 4.842.056 6.356.609m-7.773 3.324c-1.884 1.164-2.704 3.26-3.339 8.54-.232 1.934-.213 1.941 4.54 1.873 5.214-.075 5.019.06 4.631-3.202-.664-5.582-3.264-8.796-5.833-7.211M282.84 320.463c-3.915 1.588-4.053 1.75-4.062 4.812-.013 4.22 3.996 7.74 6.595 5.792.804-.601 1.236-11.822.454-11.755-.105.01-1.448.527-2.987 1.151"
  />
</svg>
