<svg viewBox="0 0 512 512" xmlns="http://www.w3.org/2000/svg"><path d="m0 256v256h512v-512h-512zm304.5-121.5c75.6 8.9 136.8 35.4 166 71.8 31.4 39 22.2 84.8-23.8 118.8-4.5 3.4-10.4 8.5-13.2 11.4-4.4 4.7-5.7 5.4-11 6.5-3.3.6-11.2 3.3-17.6 6-29.4 12.3-57.6 19.6-99.4 25.6-20.4 2.9-78.6 2.5-104.5-.6-92.4-11.4-160.5-49.1-177.6-98.2-3.8-10.7-4.4-25.5-1.5-36.8 4.1-16.7 14.7-33.1 30.6-47.4 4.2-3.7 9.6-9.9 12.1-13.7 11.2-17 28.7-25.8 51.3-25.9 6.4 0 10.7-.7 18-2.9 26.8-8.2 52.1-13 86.1-16.1 15.1-1.4 68.3-.5 84.5 1.5z"/><path d="m106 159.9c-16.9 2.4-29.8 11-36.4 24.2-4.7 9.5-6 16.2-5.3 29.4.9 17.5 5.9 28.8 16.3 36.8 12.2 9.3 32.3 12 53.3 7.2 13.9-3.2 15.7-4.6 12.1-9.2-1.7-2.2-2-4-1.9-11.7.1-11.8.7-13.8 4.7-15.5 2.4-1.1 3.2-2.1 3.2-4v-2.6l-20.7.2-20.8.2v2.3c0 1.9.8 2.4 5.4 3.4 7.9 1.8 8.5 2.7 8.9 14.3.7 16.5-2.1 20.3-12.9 18-9.6-2.1-17.6-10.7-22.1-23.6-2-6.1-2.3-8.6-2.3-23.3 0-14.5.3-17.2 2.2-22.4 4.5-11.9 12.1-17.9 22.7-18 8.7-.1 15.3 2.1 19.6 6.4 3.6 3.6 4.2 5.1 6.6 16.7.3 1.7 1.1 2.3 2.9 2.3 2.3 0 2.5-.4 2.5-4.8 0-2.6.5-8.7 1-13.6.6-4.9.8-9.1.6-9.3-2.3-2.3-30.3-4.7-39.6-3.4zm63 40.1c-.8.5-3.9 1.5-6.7 2.1-5.6 1.3-6.6 2.6-3.3 4.7 1.9 1.2 2 2.1 1.8 13.5-.3 11.6-.4 12.3-2.6 13.2-4.4 2-1.5 3 8.8 3 7 0 10.5-.4 10.7-1.2.2-.6-1-1.4-2.6-1.8-3.9-.8-4.3-2.3-3.9-14.5.3-9.1.4-9.5 2.6-9.8 1.3-.2 3.4.4 4.8 1.3 1.3.9 2.8 1.4 3.3 1.1 1.3-.8 3.4-8.4 2.8-10-1.1-2.8-6.5-2-9.9 1.4-1.6 1.6-3.1 3-3.3 3s-.5-1.6-.7-3.5c-.2-2.8-.6-3.3-1.8-2.5zm153.5 1.1c-2.7.9-5.9 2-6.9 2.3-1.9.5-1.8.7.7 3 2.6 2.4 2.7 2.9 2.7 12.3 0 11.5-.6 14-3.1 14.8-1 .4-1.9 1.2-1.9 1.9 0 .8 2.9 1.2 10.5 1.2 10.9.1 13.4-1 7.5-3.3l-3-1.1v-23.2h2.7c1.4 0 3.5.8 4.5 1.7 2.3 2 3.4 1.1 5.3-4.3 1.6-4.6.6-6.4-3.4-6.4-1.7 0-3.8 1.1-5.6 3-3.8 3.9-4.9 3.8-4.1-.5.8-3.9.9-3.9-5.9-1.4zm-125 .5c-7 3.7-9.5 8.2-9.5 17.4 0 11.8 5.7 18 16.5 18 11.3 0 17.4-5.8 18.2-17.3.9-11.7-5.9-19.7-16.6-19.7-3.1 0-6.9.7-8.6 1.6zm10.4 3.5c3.7 4 5.3 17.7 2.8 24.9-1 2.9-1.7 3.5-4.1 3.5-5.1 0-7-4-7.4-15.6-.3-7.9-.1-10.5 1.2-12.4 2-3.1 4.9-3.2 7.5-.4zm81.1-3.3c-10.4 5.5-11.7 26.5-2.1 32.9 6.9 4.7 17 2.5 22.4-4.9 2.7-3.7 1.9-4.2-2.8-1.8s-5.7 2.5-10 .4c-3-1.4-6.5-6.4-6.5-9.2 0-.5 4.5-1.4 10-1.9 5.5-.6 10.3-1.3 10.7-1.7.3-.3.2-1.6-.4-2.9-.6-1.2-1.7-3.7-2.3-5.5-.7-1.8-2.4-4.2-3.8-5.2-3.2-2.6-10.5-2.6-15.2-.2zm9.6 4.7c2.6 6.4 2.1 7.5-3.6 7.5-4.4 0-5-.3-5-2 0-4 2.8-9 5-9 1.5 0 2.5 1.1 3.6 3.5zm53.2-4.9c-3.2 1.7-5.8 6.2-5.8 9.9 0 4.5 2.7 8.1 9 12.1 6.3 4.1 8 6.5 6 8.9-3.1 3.8-10 .6-12.2-5.6-1.7-4.8-3.3-2.9-2.9 3.2.1 3 .5 5.6.7 5.9.3.2 3.4.6 6.9.8 11.1.7 16.5-3.2 16.5-11.7 0-5.4-2-7.8-10.1-12.4-5.2-2.9-6.4-4.9-4.9-7.8 2.4-4.3 10-1 10 4.3 0 1 .6 1.8 1.4 1.8 1.7 0 2.7-9.1 1.2-10.2-1.9-1.3-13-.8-15.8.8zm-127.8.3c0 .6 1.2 1.6 2.7 2.3 2.9 1.4 5 6.7 9.4 23.5 2.2 8.8 2.5 9.3 5 9.3 2.4 0 2.9-.7 5.9-9.3 1.8-5 3.6-9.6 4-10s2.2 3.6 4.1 9c3.3 9.2 3.7 9.8 6.2 9.8 2.7 0 3-.5 8-15.5 4.5-13.5 5.6-15.7 8-16.8 4.6-2.2 3-3.2-5.3-3.2-8.1 0-10.3 1.2-5.6 3 1.3.5 2.6 1.2 2.9 1.7.6 1-3.1 15.5-4.2 16.6-.5.5-2.1-2.7-3.6-7-1.6-4.3-3.2-8.8-3.6-10.1-.6-1.5-1.7-2.2-3.3-2.2-2.2 0-2.8.9-5.7 10-1.8 5.5-3.6 9.6-4 9.2-.8-.9-3.9-13.6-3.9-16.2 0-1.1.7-2 1.5-2s1.5-.7 1.5-1.5c0-1.2-1.8-1.5-10-1.5-5.6 0-10 .4-10 .9zm-61 51.5c0 2.1.6 2.5 4.1 3.1 2.3.4 5 1.6 6.2 2.8 1.9 1.9 2 2.8 1.3 14.7-1.1 22.4-3.7 49.4-5.1 52.7-1.1 2.7-2.3 3.5-5.9 4.5-3.6.9-4.6 1.7-4.6 3.3 0 1.9.5 2 16 2 15.7 0 16 0 16-2.2 0-1.7-.8-2.3-4-2.8-2.2-.4-5-1.5-6.2-2.4-2.1-1.7-2.1-2.4-1.9-18.1.1-9 .4-16.6.6-17 .2-.3.5-5.2.6-10.8s.5-10.2 1-10.2c.4 0 1.7 2.6 2.9 5.7 6.2 16.3 17 46.5 18.5 51.6 1.5 5.3 1.9 5.8 4.2 5.5 1.9-.2 2.9-1.2 3.9-3.8 11.3-30.1 22.9-59 23.7-59 1.5 0 .5 54.4-1.1 56.3-.7.8-2.8 1.8-4.7 2.1-2.7.5-3.5 1.2-3.5 2.9 0 2.2 0 2.2 19.8 2.1 18.7 0 19.7-.1 19.7-1.9 0-1.4-1.2-2.3-4.7-3.3-2.7-.7-5.2-2.1-5.7-3-1.3-2.4-2.1-17.8-2.4-45-.2-26.3-.4-25.6 7.5-26.9 3.2-.5 3.8-1 3.8-2.9 0-2.8-1.2-2.9-18.2-1.7l-9.6.6-2.3 6.6c-1.2 3.6-5.3 14-9.1 23.1s-7.4 17.7-8 19.2c-.5 1.6-1.3 2.8-1.7 2.8s-1.2-1.2-1.8-2.8c-.6-1.5-4.9-12.2-9.7-23.9-4.7-11.7-8.6-22.1-8.6-23.1 0-1.7-1.1-2-9.7-2.5-5.4-.4-12.4-.7-15.5-.7-5.5 0-5.8.1-5.8 2.4zm175.3 24.5c-8.4 1.9-9.5 2.7-5.9 4l2.6 1.1v24c0 22.9-.1 24-2 25.2-3.9 2.5-2.1 3.3 7.5 3.3 7.1 0 9.5-.3 9.5-1.3 0-.7-.8-1.6-1.7-1.9-1-.4-2.1-1.1-2.5-1.7-1-1.4-1-11.6 0-11.6.4 0 2.7 3.4 5 7.5 2.4 4.2 5.2 8 6.2 8.5 1 .6 4.6 1 7.9 1 4.6 0 6.1-.3 6.1-1.4 0-.8-.9-1.7-2-2.1-2.3-.7-7.5-6.9-12-14.3l-3.3-5.4 4.9-4.9c2.6-2.7 5.6-5.2 6.6-5.5s1.8-1.2 1.8-2.1c0-1.2-.7-1.4-3.1-.9-1.7.3-5.3.6-8 .6-3.7 0-4.9.4-4.9 1.5 0 .8.9 1.5 1.9 1.5 3.3 0 3.4 1.9.5 6.1-2.8 4-6 6.9-7.8 6.9-.5 0-.7-8.1-.4-20 .3-11 .5-19.9.4-19.9 0 .1-3.3.9-7.3 1.8zm76 11.7c-3.9 2.3-4.3 3-4.3 6.4 0 3-.5 4-2 4.5-1.1.3-2 1.5-2 2.6 0 1.2.7 1.9 2 1.9 1.9 0 2 .7 2 13 0 12.6.1 13.2 2.5 15.5 3.2 3.3 10 3.5 13.9.4 3.6-2.8 3.5-5-.2-4.3-5.2 1-6.2-1.3-6.2-13.7v-10.9h3.9c2.6 0 4.1-.5 4.5-1.6 1.4-3.6.7-4.2-3.9-3.6l-4.5.5v-6.7c0-3.6-.3-6.6-.7-6.6-.5.1-2.7 1.2-5 2.6z"/><path d="m308.8 300.3c-7.1 2.2-8.2 3.4-4.8 5.5 1.8 1.1 2 2.3 2 13.2 0 11.9 0 12.1-2.5 13.2-1.4.6-2.4 1.6-2.2 2.1.5 1.5 20.7 1.5 20.7 0 0-.6-1.3-1.6-3-2.2l-3-1v-10.9c0-11.7.7-13.6 4.6-12.2 1.2.5 2.5 1.3 2.9 1.9 1.3 2.2 3.3 1 4.9-3 2.2-5.5 1.4-7.9-2.8-7.9-2.3 0-4.1.9-6.1 3-1.6 1.6-3.1 3-3.5 3-.3 0-.4-1.6-.2-3.5s.3-3.4.1-3.4c-.2.1-3.4 1.1-7.1 2.2zm-33.6.8c-4.1 2-6.2 5-6.2 8.5 0 2.4 2.4 1.5 4.2-1.6 1.3-2.3 2.4-3 4.8-3 3.9 0 7.2 3.3 6.8 6.8-.3 2.4-1.2 3-7.3 5.2-9.5 3.4-9.5 3.4-9.5 8.9 0 9.1 6.1 12.7 13.6 8 2.9-1.8 3.4-1.8 3.4-.5 0 3.6 8.5 3.9 12.6.5 2.1-1.7 1.7-3.7-.8-4.1-2.2-.3-2.3-.8-2.8-12.5-.5-11.8-.6-12.3-3.4-15.2-3.7-3.8-9-4.1-15.4-1zm9.6 22.6c-.3 5-.6 5.8-2.4 6.1-5.2.7-7.3-8.1-2.4-10.5 4.6-2.3 5.1-1.8 4.8 4.4zm95.1-22.4c-9.8 6.5-10.6 25.3-1.3 32.6 2.5 2 3.8 2.2 9.1 1.9 5.1-.3 6.9-.9 10-3.4 2.1-1.7 4-4.2 4.1-5.5.3-1.9.2-2.1-1.1-1.1-5 4.2-13.6 3.1-16.7-2.1-3.1-5.1-2.7-6.3 2.6-7.1 2.6-.3 6.2-.6 8-.6 4.8 0 8.9-1.7 7.6-3.3-.5-.6-1.3-2.7-1.7-4.4-.3-1.8-1.9-4.6-3.5-6.3-2.5-2.6-3.5-3-8.3-3-3.9 0-6.3.6-8.8 2.3zm9.5 2.9c.8 1.3 1.6 3.6 1.8 5.3.3 2.9.2 3-4.4 3.3l-4.8.3v-3.3c0-3.7 2.4-7.8 4.5-7.8.8 0 2.1 1 2.9 2.2z"/></svg>